<mxfile host="65bd71144e">
    <diagram id="SUushjZJWubNQhusn0_C" name="Page-1">
        <mxGraphModel dx="1242" dy="568" grid="1" gridSize="10" guides="1" tooltips="1" connect="1" arrows="1" fold="1" page="1" pageScale="1" pageWidth="850" pageHeight="1100" math="0" shadow="0">
            <root>
                <mxCell id="0"/>
                <mxCell id="1" parent="0"/>
                <mxCell id="2" value="class" style="rounded=0;whiteSpace=wrap;html=1;" parent="1" vertex="1">
                    <mxGeometry width="200" height="40" as="geometry"/>
                </mxCell>
                <mxCell id="3" value="resources" style="rounded=0;whiteSpace=wrap;html=1;verticalAlign=top;align=left;" parent="1" vertex="1">
                    <mxGeometry y="40" width="100" height="80" as="geometry"/>
                </mxCell>
                <mxCell id="4" value="collaborators" style="rounded=0;whiteSpace=wrap;html=1;verticalAlign=top;align=left;" parent="1" vertex="1">
                    <mxGeometry x="100" y="40" width="100" height="80" as="geometry"/>
                </mxCell>
                <mxCell id="11" value="paw" style="rounded=0;whiteSpace=wrap;html=1;" parent="1" vertex="1">
                    <mxGeometry x="280" y="400" width="200" height="40" as="geometry"/>
                </mxCell>
                <mxCell id="12" value="size" style="rounded=0;whiteSpace=wrap;html=1;verticalAlign=top;align=left;" parent="1" vertex="1">
                    <mxGeometry x="280" y="440" width="100" height="80" as="geometry"/>
                </mxCell>
                <mxCell id="13" value="" style="rounded=0;whiteSpace=wrap;html=1;verticalAlign=top;align=left;" parent="1" vertex="1">
                    <mxGeometry x="380" y="440" width="100" height="80" as="geometry"/>
                </mxCell>
                <mxCell id="23" value="leg" style="rounded=0;whiteSpace=wrap;html=1;" parent="1" vertex="1">
                    <mxGeometry x="40" y="400" width="200" height="40" as="geometry"/>
                </mxCell>
                <mxCell id="24" value="position&lt;br&gt;size&lt;br&gt;&lt;br&gt;step()" style="rounded=0;whiteSpace=wrap;html=1;verticalAlign=top;align=left;" parent="1" vertex="1">
                    <mxGeometry x="40" y="440" width="100" height="80" as="geometry"/>
                </mxCell>
                <mxCell id="25" value="paw" style="rounded=0;whiteSpace=wrap;html=1;verticalAlign=top;align=left;" parent="1" vertex="1">
                    <mxGeometry x="140" y="440" width="100" height="80" as="geometry"/>
                </mxCell>
                <mxCell id="26" value="tail" style="rounded=0;whiteSpace=wrap;html=1;" parent="1" vertex="1">
                    <mxGeometry x="520" y="400" width="200" height="40" as="geometry"/>
                </mxCell>
                <mxCell id="27" value="length&lt;br&gt;&lt;br&gt;wag()" style="rounded=0;whiteSpace=wrap;html=1;verticalAlign=top;align=left;" parent="1" vertex="1">
                    <mxGeometry x="520" y="440" width="100" height="80" as="geometry"/>
                </mxCell>
                <mxCell id="28" value="" style="rounded=0;whiteSpace=wrap;html=1;verticalAlign=top;align=left;" parent="1" vertex="1">
                    <mxGeometry x="620" y="440" width="100" height="80" as="geometry"/>
                </mxCell>
                <mxCell id="29" value="head" style="rounded=0;whiteSpace=wrap;html=1;" parent="1" vertex="1">
                    <mxGeometry x="520" y="160" width="200" height="40" as="geometry"/>
                </mxCell>
                <mxCell id="30" value="shape&lt;br&gt;size&lt;br&gt;&lt;br&gt;turn()" style="rounded=0;whiteSpace=wrap;html=1;verticalAlign=top;align=left;" parent="1" vertex="1">
                    <mxGeometry x="520" y="200" width="100" height="80" as="geometry"/>
                </mxCell>
                <mxCell id="31" value="" style="rounded=0;whiteSpace=wrap;html=1;verticalAlign=top;align=left;" parent="1" vertex="1">
                    <mxGeometry x="620" y="200" width="100" height="80" as="geometry"/>
                </mxCell>
                <mxCell id="32" value="body" style="rounded=0;whiteSpace=wrap;html=1;" parent="1" vertex="1">
                    <mxGeometry x="280" y="160" width="200" height="40" as="geometry"/>
                </mxCell>
                <mxCell id="33" value="list of legs&lt;br&gt;tail" style="rounded=0;whiteSpace=wrap;html=1;verticalAlign=top;align=left;" parent="1" vertex="1">
                    <mxGeometry x="280" y="200" width="100" height="80" as="geometry"/>
                </mxCell>
                <mxCell id="34" value="head&lt;br&gt;leg&lt;br&gt;tail" style="rounded=0;whiteSpace=wrap;html=1;verticalAlign=top;align=left;" parent="1" vertex="1">
                    <mxGeometry x="380" y="200" width="100" height="80" as="geometry"/>
                </mxCell>
                <mxCell id="35" value="dog" style="rounded=0;whiteSpace=wrap;html=1;" parent="1" vertex="1">
                    <mxGeometry x="40" y="160" width="200" height="40" as="geometry"/>
                </mxCell>
                <mxCell id="36" value="appetite&lt;br&gt;body&lt;br&gt;health&lt;br&gt;mood&lt;br&gt;social memory&lt;br&gt;&lt;br&gt;bark()&lt;br&gt;beg()&lt;br&gt;move()&lt;br&gt;play()" style="rounded=0;whiteSpace=wrap;html=1;verticalAlign=top;align=left;" parent="1" vertex="1">
                    <mxGeometry x="40" y="200" width="100" height="160" as="geometry"/>
                </mxCell>
                <mxCell id="37" value="body" style="rounded=0;whiteSpace=wrap;html=1;verticalAlign=top;align=left;" parent="1" vertex="1">
                    <mxGeometry x="140" y="200" width="100" height="160" as="geometry"/>
                </mxCell>
            </root>
        </mxGraphModel>
    </diagram>
</mxfile>